<svg width="32" height="32" viewBox="0 0 32 32" xmlns="http://www.w3.org/2000/svg">
  <rect width="32" height="32" rx="4" fill="#0d1628"/>
  <!-- V-Fin -->
  <polygon points="16,2 15,8 17,8" fill="#f0b800"/>
  <polygon points="16,4 15,8 8,12 7,11" fill="#f0b800"/>
  <polygon points="16,4 17,8 24,12 25,11" fill="#f0b800"/>
  <!-- Helm Dome -->
  <path d="M 6,26 L 6,13 C 6,10 16,8 16,8 C 16,8 26,10 26,13 L 26,26 Z" fill="#1a3470"/>
  <!-- Face Plate -->
  <path d="M 10,16 L 22,16 L 23,18 L 23,26 L 9,26 L 9,18 Z" fill="#dce4ef"/>
  <!-- Eyes -->
  <circle cx="13" cy="20" r="3" fill="#f5c500"/>
  <circle cx="19" cy="20" r="3" fill="#f5c500"/>
  <circle cx="13.5" cy="19.5" r="1" fill="#050a0f"/>
  <circle cx="19.5" cy="19.5" r="1" fill="#050a0f"/>
  <!-- Chin Vent -->
  <rect x="11" y="24" width="10" height="2" rx="0.5" fill="#f0b800"/>
</svg>